# xmcd
# Track frame offsets:
# 150
# 49668
# 63057
# 78515
# 93947
# 108187
# 118990
# 130612
# 142697
# 167287
#
# Disc length: 2793 seconds
# Revision: 0
# Processed by: cddbd v1.5.2PL0 Copyright (c) Steve Scherf et al.
# Submitted via: VisiTrax 2.11.3.279 - For more info visit www.synapsa.com
#
DISCID=700ae70a
DTITLE=Canned Heat - Best Of Canned Heat CD2
DYEAR=2013
DGENRE=Blues
TTITLE0=Sweet Sixteen
TTITLE1=Going Up The Country
TTITLE2=Kings Of The Boogie
TTITLE3=Chicken Shack Boogie
TTITLE4=Louise
TTITLE5=Dimples
TTITLE6=Don't Hold On
TTITLE7=Straight Ahead
TTITLE8=I'd Rather Be A Devil
TTITLE9=When Things Go Wrong
EXTD=
EXTT0=
EXTT1=
EXTT2=
EXTT3=
EXTT4=
EXTT5=
EXTT6=
EXTT7=
EXTT8=
EXTT9=
PLAYORDER=
